<svg xmlns="http://www.w3.org/2000/svg" width="35" height="34.999" viewBox="0 0 35 34.999"><defs><style>.a{fill:#ff457c;}.b{fill:#fff;}</style></defs><path class="a" d="M611.182,3591H599.615a11.75,11.75,0,0,1-11.716-11.715V3556h23.283a11.75,11.75,0,0,1,11.717,11.714v11.569A11.75,11.75,0,0,1,611.182,3591Z" transform="translate(-587.899 -3556)"/><g transform="translate(4.568 10.18)"><g transform="translate(0 3.594)"><path class="b" d="M594.317,3565.423a5.284,5.284,0,0,1,1.676.23,2.61,2.61,0,0,1,1.074.655,2.4,2.4,0,0,1,.57,1.034,5.105,5.105,0,0,1,.169,1.358v4.721c-.325.071-.778.156-1.355.252a13.16,13.16,0,0,1-2.1.144,6.616,6.616,0,0,1-1.409-.137,3.042,3.042,0,0,1-1.089-.45,2.061,2.061,0,0,1-.7-.815,2.811,2.811,0,0,1-.243-1.233,2.331,2.331,0,0,1,.281-1.189,2.192,2.192,0,0,1,.754-.778,3.462,3.462,0,0,1,1.082-.418,6.012,6.012,0,0,1,1.264-.129,7.111,7.111,0,0,1,.784.038,3.532,3.532,0,0,1,.556.1v-.213a1.259,1.259,0,0,0-.35-.929,1.694,1.694,0,0,0-1.219-.351,8.062,8.062,0,0,0-1.143.082,4.97,4.97,0,0,0-.976.237l-.289-1.829c.131-.04.3-.083.5-.128s.413-.087.647-.121.479-.067.739-.094S594.052,3565.423,594.317,3565.423Zm.182,6.642c.223,0,.437,0,.64-.015a4.149,4.149,0,0,0,.488-.045v-1.721c-.091-.021-.228-.04-.41-.061a4.682,4.682,0,0,0-.5-.031,4.444,4.444,0,0,0-.6.038,1.612,1.612,0,0,0-.5.144.862.862,0,0,0-.336.291.808.808,0,0,0-.122.458.779.779,0,0,0,.359.738A1.974,1.974,0,0,0,594.5,3572.065Z" transform="translate(-590.905 -3565.423)"/></g><g transform="translate(7.894 3.641)"><path class="b" d="M601.227,3567.632q-.305-.078-.716-.16a4.381,4.381,0,0,0-.884-.085,4.119,4.119,0,0,0-.511.04,2.876,2.876,0,0,0-.448.083v6.124H596.4v-7.586a13.129,13.129,0,0,1,1.439-.4,8.22,8.22,0,0,1,1.851-.19q.182,0,.442.021c.173.017.345.036.518.062s.345.056.518.091a2.45,2.45,0,0,1,.441.13Z" transform="translate(-596.398 -3565.454)"/></g><g transform="translate(12.85 3.594)"><path class="b" d="M599.877,3569.643a4.7,4.7,0,0,1,.281-1.636,3.824,3.824,0,0,1,2.109-2.248,4.277,4.277,0,0,1,1.737-.336,5.472,5.472,0,0,1,1.173.116,5.737,5.737,0,0,1,1.037.327l-.473,1.813a5.627,5.627,0,0,0-.7-.213,3.613,3.613,0,0,0-.854-.092,1.8,1.8,0,0,0-1.5.625,2.571,2.571,0,0,0-.5,1.645,2.662,2.662,0,0,0,.465,1.676,1.946,1.946,0,0,0,1.623.594,5.7,5.7,0,0,0,.883-.075,3.645,3.645,0,0,0,.868-.246l.321,1.859a5.322,5.322,0,0,1-.991.29,6.56,6.56,0,0,1-1.31.121,4.95,4.95,0,0,1-1.889-.326,3.562,3.562,0,0,1-1.3-.892,3.463,3.463,0,0,1-.746-1.333A5.648,5.648,0,0,1,599.877,3569.643Z" transform="translate(-599.877 -3565.423)"/></g><g transform="translate(19.787)"><path class="b" d="M604.738,3574.88v-11.457l2.27-.364v3.838a4.925,4.925,0,0,1,.587-.146,3.854,3.854,0,0,1,.693-.068,4.28,4.28,0,0,1,1.623.268,2.511,2.511,0,0,1,1.035.754,2.9,2.9,0,0,1,.549,1.157,6.454,6.454,0,0,1,.161,1.493v4.526h-2.27v-4.25a3.128,3.128,0,0,0-.283-1.555,1.125,1.125,0,0,0-1.042-.457,2.885,2.885,0,0,0-.571.053c-.178.035-.337.074-.48.114v6.094Z" transform="translate(-604.738 -3563.059)"/></g></g></svg>