<svg xmlns="http://www.w3.org/2000/svg" width="35" height="34.999" viewBox="0 0 35 34.999"><defs><style>.a{fill:#cacace;}.b{fill:#2e2e3d;}</style></defs><path class="a" d="M611.182,3591H599.615a11.751,11.751,0,0,1-11.716-11.715V3556h23.283a11.75,11.75,0,0,1,11.717,11.714v11.569A11.75,11.75,0,0,1,611.182,3591Z" transform="translate(-587.899 -3556)"/><g transform="translate(4.568 10.18)"><g transform="translate(0 3.594)"><path class="b" d="M594.317,3565.424a5.264,5.264,0,0,1,1.676.23,2.612,2.612,0,0,1,1.074.655,2.393,2.393,0,0,1,.57,1.035,5.1,5.1,0,0,1,.169,1.358v4.721c-.325.071-.778.155-1.355.252a13.182,13.182,0,0,1-2.1.145,6.664,6.664,0,0,1-1.409-.137,3.056,3.056,0,0,1-1.089-.451,2.056,2.056,0,0,1-.7-.814,2.815,2.815,0,0,1-.243-1.233,2.333,2.333,0,0,1,.281-1.189,2.19,2.19,0,0,1,.754-.778,3.444,3.444,0,0,1,1.082-.418,6,6,0,0,1,1.264-.129,7.111,7.111,0,0,1,.784.038,3.553,3.553,0,0,1,.556.1v-.213a1.26,1.26,0,0,0-.35-.93,1.694,1.694,0,0,0-1.219-.351,8.062,8.062,0,0,0-1.143.083,4.953,4.953,0,0,0-.976.237l-.289-1.828c.131-.04.3-.083.5-.129s.413-.086.647-.121.479-.067.739-.093S594.052,3565.424,594.317,3565.424Zm.182,6.642c.223,0,.437,0,.64-.015a4.157,4.157,0,0,0,.488-.045v-1.722c-.091-.02-.228-.04-.41-.06a4.619,4.619,0,0,0-.5-.031,4.445,4.445,0,0,0-.6.038,1.612,1.612,0,0,0-.5.145.857.857,0,0,0-.336.29.81.81,0,0,0-.122.458.778.778,0,0,0,.359.738A1.974,1.974,0,0,0,594.5,3572.066Z" transform="translate(-590.905 -3565.424)"/></g><g transform="translate(7.894 3.641)"><path class="b" d="M601.227,3567.633q-.305-.078-.716-.16a4.381,4.381,0,0,0-.884-.085,4.125,4.125,0,0,0-.511.04,2.871,2.871,0,0,0-.448.083v6.124H596.4v-7.586a13.3,13.3,0,0,1,1.439-.4,8.222,8.222,0,0,1,1.851-.19q.182,0,.442.021c.173.017.345.036.518.062s.345.056.518.092a2.391,2.391,0,0,1,.441.13Z" transform="translate(-596.398 -3565.456)"/></g><g transform="translate(12.85 3.594)"><path class="b" d="M599.877,3569.644a4.7,4.7,0,0,1,.281-1.637,3.824,3.824,0,0,1,2.109-2.248,4.281,4.281,0,0,1,1.737-.336,5.5,5.5,0,0,1,1.173.115,5.814,5.814,0,0,1,1.037.327l-.473,1.813a5.507,5.507,0,0,0-.7-.213,3.574,3.574,0,0,0-.854-.092,1.8,1.8,0,0,0-1.5.625,2.571,2.571,0,0,0-.5,1.645,2.662,2.662,0,0,0,.465,1.676,1.946,1.946,0,0,0,1.623.594,5.677,5.677,0,0,0,.883-.076,3.622,3.622,0,0,0,.868-.245l.321,1.859a5.361,5.361,0,0,1-.991.29,6.56,6.56,0,0,1-1.31.121,4.95,4.95,0,0,1-1.889-.326,3.557,3.557,0,0,1-1.3-.892,3.459,3.459,0,0,1-.746-1.333A5.643,5.643,0,0,1,599.877,3569.644Z" transform="translate(-599.877 -3565.424)"/></g><g transform="translate(19.787)"><path class="b" d="M604.738,3574.88v-11.457l2.27-.365v3.838a4.967,4.967,0,0,1,.587-.146,3.877,3.877,0,0,1,.693-.068,4.279,4.279,0,0,1,1.623.268,2.511,2.511,0,0,1,1.035.754,2.9,2.9,0,0,1,.549,1.157,6.456,6.456,0,0,1,.161,1.493v4.526h-2.27v-4.25a3.129,3.129,0,0,0-.283-1.555,1.125,1.125,0,0,0-1.042-.456,2.866,2.866,0,0,0-.571.053q-.267.052-.48.114v6.094Z" transform="translate(-604.738 -3563.059)"/></g></g></svg>