<svg xmlns="http://www.w3.org/2000/svg" width="134.277" height="40" viewBox="0 0 134.277 40"><defs><style>.a{fill:#cacace;}</style></defs><g transform="translate(-351.375 -3541.565)"><g transform="translate(351.375 3541.785)"><path class="a" d="M367.427,3574.2h-1.55a7.18,7.18,0,0,1-7.172-7.172v-10.7a7.18,7.18,0,0,1,7.172-7.172h9.775l-1.181-7.33h-9.955c-8.854,0-13.141,7.836-13.141,12.021v14.488c0,8.524,7.7,13.194,14.5,13.194h8.594l1.181-7.33h-8.225Z" transform="translate(-351.375 -3541.832)"/><path class="a" d="M407.928,3569.8a17.5,17.5,0,0,1-.921,5.806,12.614,12.614,0,0,1-2.659,4.5,11.984,11.984,0,0,1-4.17,2.891,13.92,13.92,0,0,1-5.448,1.023,13.767,13.767,0,0,1-5.4-1.023,11.945,11.945,0,0,1-4.17-2.891,13.217,13.217,0,0,1-2.711-4.5,16.646,16.646,0,0,1-.973-5.806,16.074,16.074,0,0,1,1-5.781,13.1,13.1,0,0,1,2.762-4.451,12.4,12.4,0,0,1,4.2-2.865,13.506,13.506,0,0,1,5.3-1.023,13.643,13.643,0,0,1,5.346,1.023,12.137,12.137,0,0,1,4.169,2.865,13.034,13.034,0,0,1,2.712,4.451A16.479,16.479,0,0,1,407.928,3569.8Zm-7.775,0a9.58,9.58,0,0,0-1.407-5.551,4.6,4.6,0,0,0-4.015-2.021,4.665,4.665,0,0,0-4.042,2.021,9.447,9.447,0,0,0-1.433,5.551,9.694,9.694,0,0,0,1.433,5.6,4.63,4.63,0,0,0,4.042,2.073,4.568,4.568,0,0,0,4.015-2.073A9.832,9.832,0,0,0,400.152,3569.8Z" transform="translate(-356.618 -3544.244)"/><path class="a" d="M440.165,3579.956q-1.024.308-2.354.589t-2.787.486q-1.459.2-2.968.332t-2.89.128a16.93,16.93,0,0,1-5.935-.972,11.908,11.908,0,0,1-4.4-2.788,12.079,12.079,0,0,1-2.737-4.4,16.754,16.754,0,0,1-.947-5.807,19.878,19.878,0,0,1,.819-5.909,12.852,12.852,0,0,1,2.352-4.476,10.091,10.091,0,0,1,3.76-2.814,12.626,12.626,0,0,1,5.091-.972,12.028,12.028,0,0,1,2.839.307,15.484,15.484,0,0,1,2.533.87v-11.42l7.623-1.228Zm-17.24-12.789a9.334,9.334,0,0,0,1.586,5.679,5.473,5.473,0,0,0,4.706,2.149c.682,0,1.312-.026,1.894-.077s1.055-.111,1.432-.179v-13.864a6.626,6.626,0,0,0-1.867-.767,8.979,8.979,0,0,0-2.328-.307Q422.925,3559.8,422.924,3567.167Z" transform="translate(-362.481 -3541.841)"/><path class="a" d="M447.119,3569.894a16.456,16.456,0,0,1,1.1-6.268,13.449,13.449,0,0,1,2.891-4.477,12.027,12.027,0,0,1,4.118-2.711,12.878,12.878,0,0,1,4.783-.92,11.892,11.892,0,0,1,9.055,3.5q3.326,3.5,3.327,10.309,0,.665-.052,1.458t-.1,1.407H454.946a5.064,5.064,0,0,0,2.2,3.734,8.839,8.839,0,0,0,5.219,1.381,21.975,21.975,0,0,0,4.118-.384,15.5,15.5,0,0,0,3.3-.946l1.023,6.19a10.666,10.666,0,0,1-1.637.614,21.571,21.571,0,0,1-2.277.536q-1.254.231-2.686.384a26.7,26.7,0,0,1-2.865.154,16.965,16.965,0,0,1-6.318-1.074,12.3,12.3,0,0,1-4.451-2.942,11.67,11.67,0,0,1-2.609-4.426A17.532,17.532,0,0,1,447.119,3569.894Zm17.906-2.916a7.9,7.9,0,0,0-.334-1.893,4.744,4.744,0,0,0-.869-1.639,4.669,4.669,0,0,0-1.484-1.176,4.839,4.839,0,0,0-2.226-.46,5.114,5.114,0,0,0-2.2.436,4.562,4.562,0,0,0-1.534,1.15,5.144,5.144,0,0,0-.946,1.663,10.9,10.9,0,0,0-.487,1.919Z" transform="translate(-368.049 -3544.215)"/></g><g transform="translate(457.103 3541.565)"><path class="a" d="M483.127,3581.268a57.389,57.389,0,0,1,1.431-8.7,83,83,0,0,1,2.66-8.867,74.78,74.78,0,0,1,3.518-8.209,47.505,47.505,0,0,1,3.947-6.465H479.4l1.176-7.466,27.373.1s-5.3,9.26-6.771,11.624a64.205,64.205,0,0,0-4.176,8.038,74.354,74.354,0,0,0-3.432,9.64,49.881,49.881,0,0,0-1.8,10.3Z" transform="translate(-479.399 -3541.565)"/></g></g></svg>