<svg xmlns="http://www.w3.org/2000/svg" width="35" height="35" viewBox="0 0 35 35"><defs><style>.a{fill:#cacace;}.b{fill:#2e2e3d;}</style></defs><path class="a" d="M704.615,3591.07H693.047a11.75,11.75,0,0,1-11.716-11.716V3556.07h23.284a11.75,11.75,0,0,1,11.716,11.716v11.568A11.749,11.749,0,0,1,704.615,3591.07Z" transform="translate(-681.331 -3556.07)"/><g transform="translate(4.901 12.535)"><path class="b" d="M685.367,3569.115a4.939,4.939,0,0,1,.295-1.711,4.006,4.006,0,0,1,2.2-2.347,4.463,4.463,0,0,1,1.814-.351,5.691,5.691,0,0,1,2.307.462l-.492,1.894a5.929,5.929,0,0,0-.733-.223,3.861,3.861,0,0,0-.89-.1,1.88,1.88,0,0,0-1.568.655,2.681,2.681,0,0,0-.517,1.718,2.785,2.785,0,0,0,.485,1.75,2.036,2.036,0,0,0,1.694.621,5.923,5.923,0,0,0,.924-.08,3.954,3.954,0,0,0,.906-.255l.334,1.94a5.525,5.525,0,0,1-1.033.3,6.847,6.847,0,0,1-1.369.127,5.162,5.162,0,0,1-1.973-.342,3.7,3.7,0,0,1-1.36-.931,3.613,3.613,0,0,1-.78-1.392A5.917,5.917,0,0,1,685.367,3569.115Z" transform="translate(-685.367 -3564.707)"/><g transform="translate(7.559 0.049)"><path class="b" d="M695.385,3567.014q-.319-.079-.747-.167a4.694,4.694,0,0,0-.923-.086,4.364,4.364,0,0,0-.533.04,3.2,3.2,0,0,0-.47.087v6.4h-2.37v-7.924a14.518,14.518,0,0,1,1.5-.421,8.608,8.608,0,0,1,1.935-.2q.189,0,.46.023c.181.017.36.038.541.065s.36.058.541.094a2.632,2.632,0,0,1,.462.135Z" transform="translate(-690.341 -3564.739)"/></g><g transform="translate(13.477 0.033)"><path class="b" d="M698.835,3568.849a3.27,3.27,0,0,0-.295-1.623,1.092,1.092,0,0,0-1.011-.477c-.149,0-.3.009-.462.024s-.313.033-.46.054v6.46h-2.371v-8.082c.2-.053.438-.109.708-.167s.556-.113.859-.16.612-.085.932-.113.631-.038.938-.038a3.965,3.965,0,0,1,1.473.229,3.317,3.317,0,0,1,.93.551,4.021,4.021,0,0,1,1.17-.573,4.07,4.07,0,0,1,1.217-.207,4.171,4.171,0,0,1,1.647.279,2.477,2.477,0,0,1,1.026.787,2.97,2.97,0,0,1,.524,1.208,7.794,7.794,0,0,1,.144,1.559v4.726h-2.371v-4.438a3.273,3.273,0,0,0-.295-1.623,1.092,1.092,0,0,0-1.011-.477,2.1,2.1,0,0,0-.533.1,2.04,2.04,0,0,0-.564.238,3.686,3.686,0,0,1,.143.772q.032.406.032.867v4.566h-2.371Z" transform="translate(-694.236 -3564.729)"/></g></g></svg>