<svg xmlns="http://www.w3.org/2000/svg" width="35" height="35" viewBox="0 0 35 35"><defs><style>.a{fill:#482fae;}.b{fill:#fff;}</style></defs><path class="a" d="M704.615,3591.069H693.047a11.749,11.749,0,0,1-11.716-11.715V3556.07h23.284a11.75,11.75,0,0,1,11.716,11.716v11.568A11.749,11.749,0,0,1,704.615,3591.069Z" transform="translate(-681.331 -3556.07)"/><g transform="translate(4.901 12.535)"><path class="b" d="M685.367,3569.115a4.94,4.94,0,0,1,.295-1.711,4.007,4.007,0,0,1,2.2-2.347,4.467,4.467,0,0,1,1.814-.35,5.68,5.68,0,0,1,2.307.461l-.492,1.895a5.887,5.887,0,0,0-.733-.223,3.861,3.861,0,0,0-.89-.1,1.88,1.88,0,0,0-1.568.654,2.682,2.682,0,0,0-.517,1.718,2.785,2.785,0,0,0,.485,1.75,2.035,2.035,0,0,0,1.694.622,5.925,5.925,0,0,0,.924-.08,3.954,3.954,0,0,0,.906-.255l.334,1.94a5.545,5.545,0,0,1-1.033.3,6.828,6.828,0,0,1-1.369.127,5.162,5.162,0,0,1-1.973-.342,3.7,3.7,0,0,1-1.36-.931,3.615,3.615,0,0,1-.78-1.392A5.918,5.918,0,0,1,685.367,3569.115Z" transform="translate(-685.367 -3564.707)"/><g transform="translate(7.559 0.049)"><path class="b" d="M695.385,3567.014c-.213-.053-.462-.11-.747-.168a4.713,4.713,0,0,0-.923-.086,4.364,4.364,0,0,0-.533.04,3.23,3.23,0,0,0-.47.087v6.4h-2.37v-7.924a14.522,14.522,0,0,1,1.5-.42,8.594,8.594,0,0,1,1.935-.2c.126,0,.28.007.46.022s.36.038.541.066.36.057.541.094a2.633,2.633,0,0,1,.462.135Z" transform="translate(-690.341 -3564.739)"/></g><g transform="translate(13.477 0.033)"><path class="b" d="M698.835,3568.848a3.27,3.27,0,0,0-.295-1.623,1.093,1.093,0,0,0-1.011-.477c-.149,0-.3.009-.462.024s-.313.033-.46.055v6.46h-2.371v-8.082c.2-.053.438-.11.708-.167s.556-.113.859-.16.612-.085.932-.112.631-.038.938-.038a3.964,3.964,0,0,1,1.473.229,3.322,3.322,0,0,1,.93.55,4.033,4.033,0,0,1,1.17-.573,4.077,4.077,0,0,1,1.217-.207,4.18,4.18,0,0,1,1.647.278,2.482,2.482,0,0,1,1.026.787,2.966,2.966,0,0,1,.524,1.208,7.79,7.79,0,0,1,.144,1.559v4.726h-2.371v-4.439a3.272,3.272,0,0,0-.295-1.623,1.093,1.093,0,0,0-1.011-.477,2.146,2.146,0,0,0-.533.095,2.077,2.077,0,0,0-.564.239,3.687,3.687,0,0,1,.143.771q.032.407.032.867v4.567h-2.371Z" transform="translate(-694.236 -3564.729)"/></g></g></svg>