<svg xmlns="http://www.w3.org/2000/svg" width="35" height="35" viewBox="0 0 35 35"><defs><style>.a{fill:#cacace;}.b{fill:#2e2e3d;}</style></defs><path class="a" d="M736.469,3591.51H724.9a11.75,11.75,0,0,1-11.716-11.716V3556.51h23.284a11.75,11.75,0,0,1,11.716,11.716v11.569A11.751,11.751,0,0,1,736.469,3591.51Z" transform="translate(-713.185 -3556.51)"/><g transform="translate(9.394 9.83)"><path class="b" d="M727.531,3575.41c-.213.063-.457.124-.732.182s-.565.109-.866.15-.611.078-.924.1-.612.041-.9.041a5.248,5.248,0,0,1-1.846-.3,3.673,3.673,0,0,1-1.368-.866,3.746,3.746,0,0,1-.851-1.369,5.185,5.185,0,0,1-.3-1.806,6.218,6.218,0,0,1,.254-1.838,4.026,4.026,0,0,1,.732-1.392,3.13,3.13,0,0,1,1.169-.875,3.921,3.921,0,0,1,1.583-.3,3.725,3.725,0,0,1,.883.1,4.847,4.847,0,0,1,.789.271v-3.787l2.371-.382Zm-5.363-3.979a2.9,2.9,0,0,0,.494,1.765,1.7,1.7,0,0,0,1.464.669q.319,0,.588-.024c.181-.017.33-.034.447-.056v-4.312a2.059,2.059,0,0,0-.58-.239,2.777,2.777,0,0,0-.725-.1Q722.169,3569.14,722.169,3571.432Z" transform="translate(-719.751 -3563.333)"/><g transform="translate(8.718 3.753)"><path class="b" d="M728.385,3572.693a2.358,2.358,0,0,0,.922-.128.487.487,0,0,0,.271-.492.605.605,0,0,0-.35-.5,6.73,6.73,0,0,0-1.067-.486,10.2,10.2,0,0,1-1.009-.428,2.959,2.959,0,0,1-.772-.533,2.148,2.148,0,0,1-.494-.74,2.727,2.727,0,0,1-.175-1.033,2.237,2.237,0,0,1,.875-1.862,3.8,3.8,0,0,1,2.4-.685,7.625,7.625,0,0,1,1.463.137,7.1,7.1,0,0,1,1.114.292l-.413,1.847a8.568,8.568,0,0,0-.9-.255,4.947,4.947,0,0,0-1.09-.111q-1.114,0-1.114.621a.669.669,0,0,0,.047.254.539.539,0,0,0,.191.214,2.588,2.588,0,0,0,.391.223c.164.081.374.17.628.264a9.8,9.8,0,0,1,1.289.57,3.134,3.134,0,0,1,.8.607,1.871,1.871,0,0,1,.414.721,3.187,3.187,0,0,1,.12.923,2.122,2.122,0,0,1-.932,1.873,4.647,4.647,0,0,1-2.634.635,7.407,7.407,0,0,1-2.88-.51l.4-1.925a7.744,7.744,0,0,0,1.242.374A6.1,6.1,0,0,0,728.385,3572.693Z" transform="translate(-725.488 -3565.803)"/></g></g></svg>