<svg xmlns="http://www.w3.org/2000/svg" width="35" height="35" viewBox="0 0 35 35"><defs><style>.a{fill:#6e28ac;}.b{fill:#fff;}</style></defs><path class="a" d="M736.469,3591.509H724.9a11.75,11.75,0,0,1-11.716-11.716v-23.284h23.284a11.75,11.75,0,0,1,11.716,11.715v11.569A11.751,11.751,0,0,1,736.469,3591.509Z" transform="translate(-713.185 -3556.509)"/><g transform="translate(9.394 9.83)"><path class="b" d="M727.531,3575.409c-.213.063-.457.125-.732.182s-.565.11-.866.151-.611.078-.924.1-.612.042-.9.042a5.237,5.237,0,0,1-1.846-.3,3.681,3.681,0,0,1-1.368-.865,3.75,3.75,0,0,1-.851-1.369,5.183,5.183,0,0,1-.3-1.805A6.217,6.217,0,0,1,720,3569.7a4.022,4.022,0,0,1,.732-1.392,3.136,3.136,0,0,1,1.169-.875,3.921,3.921,0,0,1,1.583-.3,3.687,3.687,0,0,1,.883.1,4.819,4.819,0,0,1,.789.27v-3.787l2.371-.382Zm-5.363-3.978a2.9,2.9,0,0,0,.494,1.765,1.7,1.7,0,0,0,1.464.669q.319,0,.588-.024c.181-.017.33-.034.447-.055v-4.312a2.074,2.074,0,0,0-.58-.239,2.788,2.788,0,0,0-.725-.1Q722.169,3569.139,722.169,3571.431Z" transform="translate(-719.751 -3563.332)"/><g transform="translate(8.718 3.753)"><path class="b" d="M728.385,3572.692a2.358,2.358,0,0,0,.922-.128.487.487,0,0,0,.271-.492.606.606,0,0,0-.35-.5,6.711,6.711,0,0,0-1.067-.486,10.2,10.2,0,0,1-1.009-.429,2.954,2.954,0,0,1-.772-.533,2.148,2.148,0,0,1-.494-.74,2.726,2.726,0,0,1-.175-1.033,2.236,2.236,0,0,1,.875-1.861,3.8,3.8,0,0,1,2.4-.686,7.625,7.625,0,0,1,1.463.137,7.073,7.073,0,0,1,1.114.293l-.413,1.847a8.688,8.688,0,0,0-.9-.255,4.947,4.947,0,0,0-1.09-.111q-1.114,0-1.114.621a.668.668,0,0,0,.047.254.539.539,0,0,0,.191.214,2.608,2.608,0,0,0,.391.224c.164.08.374.17.628.264a9.771,9.771,0,0,1,1.289.57,3.129,3.129,0,0,1,.8.607,1.869,1.869,0,0,1,.414.721,3.186,3.186,0,0,1,.12.923,2.121,2.121,0,0,1-.932,1.872,4.645,4.645,0,0,1-2.634.635,7.407,7.407,0,0,1-2.88-.51l.4-1.925a7.768,7.768,0,0,0,1.242.374A6.1,6.1,0,0,0,728.385,3572.692Z" transform="translate(-725.488 -3565.802)"/></g></g></svg>