<svg xmlns="http://www.w3.org/2000/svg" width="40" height="40" viewBox="0 0 40 40"><defs><style>.a{fill:#005dff;}.b{fill:#fff;}</style></defs><g transform="translate(-249.406 -48)"><g transform="translate(249.406 48)"><g transform="translate(0 0)"><path class="a" d="M328.447,387.966H315.227a13.43,13.43,0,0,1-13.39-13.39v-26.61h26.61a13.429,13.429,0,0,1,13.39,13.389v13.22A13.43,13.43,0,0,1,328.447,387.966Z" transform="translate(-301.837 -347.966)"/></g><g transform="translate(8.318 11.682)"><g transform="translate(0 3.846)"><path class="b" d="M312.532,369.545a2.572,2.572,0,0,0,1-.138.536.536,0,0,0,.295-.537.658.658,0,0,0-.381-.546,7.386,7.386,0,0,0-1.162-.528,11.861,11.861,0,0,1-1.1-.468,3.224,3.224,0,0,1-.841-.58,2.356,2.356,0,0,1-.537-.805,2.99,2.99,0,0,1-.191-1.127,2.435,2.435,0,0,1,.953-2.026,4.149,4.149,0,0,1,2.617-.746,8.388,8.388,0,0,1,1.594.148,7.405,7.405,0,0,1,1.213.321l-.451,2.009a9.763,9.763,0,0,0-.978-.277,5.344,5.344,0,0,0-1.187-.121q-1.213,0-1.213.676a.685.685,0,0,0,.053.277.59.59,0,0,0,.207.234,2.89,2.89,0,0,0,.425.244c.179.087.407.184.684.288a10.784,10.784,0,0,1,1.4.62,3.372,3.372,0,0,1,.876.661,2.054,2.054,0,0,1,.45.786,3.471,3.471,0,0,1,.13,1,2.309,2.309,0,0,1-1.014,2.04,5.054,5.054,0,0,1-2.867.692,8.064,8.064,0,0,1-3.137-.555l.434-2.1a8.51,8.51,0,0,0,1.351.407A6.581,6.581,0,0,0,312.532,369.545Z" transform="translate(-309.378 -362.043)"/></g><g transform="translate(7.908)"><path class="b" d="M320.5,358.556a5.643,5.643,0,0,1,1.334.148,6.467,6.467,0,0,1,.936.286l-.5,2.062a3.38,3.38,0,0,0-.753-.234,4.037,4.037,0,0,0-.754-.077,2.113,2.113,0,0,0-.788.129,1.222,1.222,0,0,0-.5.355,1.378,1.378,0,0,0-.259.537,2.789,2.789,0,0,0-.078.676v.45h3.188v2.149h-3.188V372h-2.581v-9.6a3.544,3.544,0,0,1,3.95-3.846Z" transform="translate(-316.547 -358.556)"/></g><g transform="translate(14.128 4.331)"><path class="b" d="M331.42,362.482q-.781,2.633-1.631,4.937t-1.859,4.47a10.345,10.345,0,0,1-.729,1.326,4.112,4.112,0,0,1-.8.9,2.834,2.834,0,0,1-.981.52,4.452,4.452,0,0,1-1.275.164,5.208,5.208,0,0,1-1.119-.113,4.912,4.912,0,0,1-.842-.252l.45-2.062a4.342,4.342,0,0,0,.71.191,4.063,4.063,0,0,0,.66.052,1.437,1.437,0,0,0,1.066-.373,3.016,3.016,0,0,0,.633-1.03q-.885-1.732-1.769-3.889a48.575,48.575,0,0,1-1.663-4.843h2.738q.174.675.409,1.464t.5,1.594q.261.8.531,1.567t.514,1.387c.15-.416.308-.878.469-1.387s.323-1.031.479-1.567.308-1.069.452-1.594.276-1.014.392-1.464Z" transform="translate(-322.186 -362.482)"/></g></g></g></g></svg>