<svg xmlns="http://www.w3.org/2000/svg" xmlns:xlink="http://www.w3.org/1999/xlink" width="674.5" height="352.37" viewBox="0 0 674.5 352.37"><defs><style>.a,.g{fill:#fff;}.a{opacity:0.1;}.b{fill:#005dff;}.c{fill:url(#a);}.d{fill:#2e2e3d;}.e{fill:url(#b);}.f{fill:#c0c0cb;}.h{fill:#0096ff;}.i{fill:#e5e5e5;}.j{fill:#9893ca;}.k{fill:url(#c);}.l,.o{fill:#f3f4f9;}.l{opacity:0.3;}.m{fill:#ff457c;}.n{fill:#fdd4c6;}.p{fill:#7959eb;}.q{fill:#f07c5d;}.r{fill:#0ccfd3;}</style><linearGradient id="a" x1="0.288" y1="0.707" x2="0.768" y2="0.318" gradientUnits="objectBoundingBox"><stop offset="0" stop-color="#fff"/><stop offset="0.371" stop-color="#f9fbfc"/><stop offset="0.829" stop-color="#eaf1f5"/><stop offset="1" stop-color="#e3edf2"/></linearGradient><linearGradient id="b" x1="0.58" y1="0.328" x2="0.539" y2="0.745" xlink:href="#a"/><linearGradient id="c" x1="0.073" y1="-0.044" x2="0.577" y2="0.641" gradientUnits="objectBoundingBox"><stop offset="0" stop-color="#005dff"/><stop offset="1" stop-color="#7958ef"/></linearGradient></defs><g transform="translate(-1004 -147.43)"><path class="a" d="M4623.44,495.122s-524.157,16.2-582.542,0-70.807-162.2-31.056-199.653,70.186-26.883,95.651-34.845,162.732-134.851,257.142-106.569,106.832,96.5,155.279,117.429,123.6,27.551,138.508,104.5S4649.476,494.362,4623.44,495.122Z" transform="translate(-2982.773 -2.522)"/><g transform="translate(944.329 -114.508)"><path class="b" d="M3214.814,891.551s-9.65-14.235-11.3-20.584c-1.161-4.463,1.318-30.158-.608-31.375s-6.694-1.927-7.708.3c-.6,1.322-5.477,21.2-3.245,36.989,1.294,9.157,9.229,25.182,12.475,26.8S3214.814,891.551,3214.814,891.551Z" transform="translate(-2545.239 -465.136)"/><path class="b" d="M2623.536,1528l-10.114,1.677a6.319,6.319,0,0,0-4.752,3.693l-10.561,24.047a6.319,6.319,0,0,0,.528,6.046l6.394,9.589Z" transform="translate(-2056.778 -1032.369)"/><path class="c" d="M2553.761,1303.013s-25.443,90.5-47.56,102.887,30.934,25.507,47.031,8.6,44.248-103.493,44.248-103.493Z" transform="translate(-1977.24 -847.293)"/><path class="d" d="M2814.444,1324.7l-27.309-4.992-17.264-.046c-.99,3.371-2.8,9.4-5.233,16.909L2807,1346.5C2811.511,1333.72,2814.444,1324.7,2814.444,1324.7Z" transform="translate(-2194.204 -860.992)"/><path class="e" d="M1882.367,402.856c-56.161-19.591-106.2-60.307-138.706-87.787l-43.119,231.686s74.353-32.915,166.678-41.118a75.3,75.3,0,0,0,22.146-44.759C1892.419,434.91,1887.3,415.078,1882.367,402.856Z" transform="translate(-1318.868 -34.6)"/><path class="b" d="M2722.936,827.7c-14.361-3.063-34.067-7.681-55.741-13.945q-5.985-1.73-11.886-3.8c4.933,12.222,10.052,32.053,7,58.022a75.3,75.3,0,0,1-22.147,44.759q4.508-.4,9.07-.721a411.123,411.123,0,0,1,60.247.005,24.845,24.845,0,0,0,26.3-20.347l6.427-35.155A24.881,24.881,0,0,0,2722.936,827.7Z" transform="translate(-2091.809 -441.697)"/><ellipse class="f" cx="119.19" cy="27.833" rx="119.19" ry="27.833" transform="matrix(0.18, -0.984, 0.984, 0.18, 350.508, 507.502)"/><path class="b" d="M1333.376,810.772l43.985,23.115c1.675-13.5,15.715-24.92,16.981-39.828,1.7-20.073,10.464-33.161,11.045-51.006l-52.554-6.453c-9.868-.93-23.056,5.181-24.531,22.549l-3.242,26.4C1323.618,802.548,1324.072,806.094,1333.376,810.772Z" transform="translate(-1053.041 -214.302) rotate(-7)"/><path class="g" d="M1659.967,321.863c-1.246-25.638-6.633-39.506-16.008-41.22-16.514-3.028-32.246,32.3-44.1,79.257h6.081s9.3-30.366,15.016-43.518c9.424-21.671,17.285-28.99,21.349-28.757a3.035,3.035,0,0,1,.371.044c3.946.722,8.973,10.2,10.157,34.54a307.578,307.578,0,0,1-1.468,43.853c-1.234,12.657-3.118,26.046-5.615,39.7-2.239,12.247-4.866,24.108-7.781,35.281a316.431,316.431,0,0,1-15.156,45.377c-9.718,22.35-17.77,29.437-21.72,28.713s-8.973-10.2-10.157-34.54c-.727-14.963-.494-26.854,1.764-46.163l-4.9-2.55c-5.878,49.025-4.8,87.2,12.013,90.279a10.138,10.138,0,0,0,1.25.15c19.917,1.144,40.974-56.487,51.719-115.264C1658.55,375.472,1661.1,345.219,1659.967,321.863Z" transform="translate(-1222.562 -6.144)"/><path class="g" d="M3196.468,1852.746a10.246,10.246,0,0,1-1.563-4.955h-5.521a5.193,5.193,0,0,1-.554,3.374c-.405.645-1.59,1.126-3.222,1.813-2.585,1.327-5.776,3.038-5.886,3.922-.184,1.472,15.043,1.426,17.573,0C3198.617,1856.154,3197.691,1854.552,3196.468,1852.746Z" transform="translate(-2535.654 -1295.434)"/><path class="g" d="M3445.578,1828.51a10.238,10.238,0,0,1-3.044-4.211l-5.24,1.739a5.188,5.188,0,0,1,.537,3.376c-.182.74-1.154,1.569-2.487,2.736-2.035,2.074-4.525,4.7-4.351,5.577.289,1.455,14.726-3.385,16.679-5.536C3448.692,1831.066,3447.308,1829.837,3445.578,1828.51Z" transform="translate(-2742.347 -1276.109)"/><path class="d" d="M3159.509,1404.849c1.626-20.644,11.43-35.6,14.715-42.206,1.4-3.715,30.531,6.31,31.05,7.762,5.123,14.324-1.644,33.214.021,41.565.7,3.5,16.131,28.355,14.927,34.98-.387,2.127-3.663,2.959-5.484,1.627-5.136-3.757-10.341-9.886-14.235-15.06-4.514-6-8.583-10.7-9.45-13.134-3.718-10.456-3.482-39.721-7.672-31.931-.729,1.356-7.535,20.06-7.536,21.923,0,6.027,8.534,41.613-.244,41.613C3167.149,1451.989,3158.9,1412.542,3159.509,1404.849Z" transform="translate(-2519.004 -895.671)"/><path class="b" d="M3235.02,1144.4c-1.083-4.564-5.506-8.444-10.023-9.87,0,.005,0,.011-.006.017-6.427-2.347-13.93-6.725-17.27-5.719-9.317,2.806-10.091,35.857-12.525,42.957-.283.568-6.663,15.74-7.032,16.43,1.825,3.246,5.382,6.559,12.306,7.167.928.081,6.12-10.234,7.167-10.007.093.02,3.584,11.968,3.584,11.968s16.005,3.229,20.149,2.231c1.015-11.021-1.67-24.012-1.758-24.612C3227.583,1161.1,3236.946,1152.52,3235.02,1144.4Z" transform="translate(-2542.601 -703.887)"/><path class="h" d="M3292.4,1143.7a9.178,9.178,0,0,0-3.8.615c-.583.224-1.261.5-1.978.83-2.107.964-4.794,2.251-4.642,3.94s2.553,7.926,2.553,7.926-2.3-4.361-3.213-3.144,4.143,18.9,5.063,19.325,11.73-11.26,12.354-12.664-2.089-1.018-2.089-1.018,8.034-6.1,7.788-8.128C3304.209,1149.468,3302.658,1144.273,3292.4,1143.7Z" transform="translate(-2619.146 -716.231)"/><path class="i" d="M3315.7,1148.071s5.624.875,7.352,2.8-12.834,25.366-13.965,27.536S3307.791,1147.4,3315.7,1148.071Z" transform="translate(-2641.61 -719.828)"/><g transform="translate(672.937 416.836)"><path class="d" d="M3350,1088.137s-.876-1.88.318-3.04,3.987-1.982,5.224-.422a2.624,2.624,0,0,1,.584,2.788,2.469,2.469,0,0,1,.764,2.168,17.242,17.242,0,0,1-1.824,4.058S3349.883,1090.481,3350,1088.137Z" transform="translate(-3348.413 -1083.815)"/><path class="j" d="M3349.583,1126.7l.686,6.951c-.2.909-5.668,2.291-6.833.81-.342-.433-.022-1.275.591-2.125l3.54-4.584Z" transform="translate(-3343.152 -1119.091)"/><path class="d" d="M3352.641,1137.816c1.041.055,2.466.113,2.466.113a4.437,4.437,0,0,1-2.129,2.446,4.252,4.252,0,0,1-2.648.434Z" transform="translate(-3348.938 -1128.237)"/><path class="j" d="M3348.113,1103.429l.588,3.833a2.366,2.366,0,0,1-2.12,2.529,6.538,6.538,0,0,1-2.873-.359c-1.019-.3-1.386-1.384-1.16-2.746a12.9,12.9,0,0,1,1.524-4.115C3345.119,1100.74,3347.547,1100.959,3348.113,1103.429Z" transform="translate(-3342.484 -1098.249)"/><path class="g" d="M3349.655,1124.612a6.369,6.369,0,0,1-2.085-.281s-.164.786.271,1.141S3349.211,1125.51,3349.655,1124.612Z" transform="translate(-3346.643 -1117.144)"/><path class="j" d="M3371.5,1114.239a3.336,3.336,0,0,0,.182-.694c.075-.451.292-1.1.905-.663.892.64.542,2.833-.6,2.83C3371.134,1115.71,3371.276,1114.8,3371.5,1114.239Z" transform="translate(-3366.212 -1107.606)"/></g><path class="j" d="M3166.3,1226.9a6.269,6.269,0,0,1-.579-1.61c-.091-.526-.33-3.452-1.15-2.827-.415.316-.3,1.52-.752,2.1-.4.517-1.646-3.132-2.167-2.7a8,8,0,0,0-2.1,3.365c-.188.623-.138,2.151,1.682,4.027S3167.542,1230.634,3166.3,1226.9Z" transform="translate(-2519.004 -780.515)"/><path class="j" d="M3231.383,805.044a6.027,6.027,0,0,0,1.125-2.472c.308-1.58,1.182-1.562,1.66-1.95s-.341-1.023-1.543-.371c-.77.417-1.181,1.461-1.25.608s2.522-5.431.484-4.336c-.287.154-1.361.956-1.361.956a7.835,7.835,0,0,0-1.387,1.232,7.75,7.75,0,0,0-1.026,5.113C3228.2,804.843,3229.253,806.853,3231.383,805.044Z" transform="translate(-2575.393 -430.51)"/><path class="b" d="M3217.311,1205.37c-7.088-3.7-22.448,23.105-22.448,23.105s-17.377-16.566-18.662-15.754-5.477,4.125-5.477,6.085,9.862,23.768,24.452,23.462C3208.07,1242,3226.413,1210.126,3217.311,1205.37Z" transform="translate(-2528.255 -766.682)"/><g transform="translate(207.003 288.178)"><path class="k" d="M810.118,429.088a19.337,19.337,0,0,1-.84-8.224c1.383-12.124,4.841-47-.5-52.153-6.479-6.255-80.2-14.685-83.547-7.312s-21,59.365,3.123,63.386c17.715,2.952,42.209,2.894,53.977,2.655a30.949,30.949,0,0,1,13.336,2.719l17.356,7.806Z" transform="translate(-715.866 -358.527)"/><g transform="translate(16.736 25.486)"><circle class="g" cx="6.088" cy="6.088" r="6.088"/><circle class="g" cx="6.088" cy="6.088" r="6.088" transform="translate(21.558 0.907)"/><circle class="g" cx="6.088" cy="6.088" r="6.088" transform="translate(42.228 12.948) rotate(-80.881)"/></g></g><path class="l" d="M1108.339,1208.267l-45.041,23.969,14.673,16.616,34.41-32.413Z" transform="translate(-794.663 -769.354)"/><path class="l" d="M1285.5,487.583l-21.781-21.242-10.84,11.344,29.114,15.8Z" transform="translate(-950.615 -159.038)"/><g transform="translate(97.271 349.639)"><path class="m" d="M334.953,707.93s-.756-2.912-5.035-2.925c-3.492-.01-3.359,5.364-5.795,5.536s-2.708-1.7-4.828-1.593c-2.52.124-4.731,1.359-5.21,4.13-.31,1.789.061,4.616,5.534,5.306,1.752.221,2.607,2.849,5.028,2.977a19.86,19.86,0,0,0,9.69-1.511C337.278,718.733,343.224,706.869,334.953,707.93Z" transform="translate(-275.56 -705.005)"/><path class="n" d="M438.62,790.451c4.971-.891,14.318,17.358,16.183,16.938,3.717-.838,7.3-21.616,11.994-20.347,4.03,1.088,1.078,27.033-9.674,30.149-8.281,2.4-15.464-7.759-17.5-10.778S434.9,791.117,438.62,790.451Z" transform="translate(-376.543 -772.443)"/><path class="n" d="M589.14,765.324a13.907,13.907,0,0,1-.97-2.585c.075-.975.63-1.17.63-1.17s-.234-2.257,1.245-1.884c2.356.595,2.63,1.515,2.743,3.575S592.829,767.977,589.14,765.324Z" transform="translate(-501.089 -749.951)"/><g transform="translate(60.223 17.976)"><path class="o" d="M438.62,806.372c3.544-.635,9.31,8.455,13.006,13.575a11.339,11.339,0,0,1-6.413,9.078,38.776,38.776,0,0,1-5.585-6.691C437.6,819.316,434.9,807.039,438.62,806.372Z" transform="translate(-436.766 -806.341)"/></g><g transform="translate(55.783 139.464) rotate(7)"><path class="n" d="M409.493,1500.644c.761-1.294.656-2.727,1.192-4.545l5.626-.337s-1.292,2.524-.52,3.593c.336.466,6.382,2.948,6.508,3.608.21,1.1-11.254,1.8-13.228.848C408.04,1503.312,408.659,1502.062,409.493,1500.644Z" transform="translate(-408.532 -1495.761)"/><g transform="translate(0 3.919)"><path class="p" d="M409.712,1518.3c1.262.037,2.476.862,4.479.855,1.714-.006,2.06-.755,2.087-1.3,1.507.833,5.915,2.719,6.022,3.281.21,1.1-11.254,1.8-13.228.848-1.032-.5-.413-1.748.421-3.166A2.126,2.126,0,0,0,409.712,1518.3Z" transform="translate(-408.532 -1517.855)"/></g></g><g transform="translate(0 96.147)"><path class="n" d="M100.485,1247.433c1.439.425,2.805-.023,4.7.057l1.688,5.377s-2.761-.643-3.612.364c-.371.439-1.316,6.906-1.926,7.188-1.016.469-4.469-10.485-4.023-12.63C97.544,1246.668,98.907,1246.967,100.485,1247.433Z" transform="translate(-97.271 -1247.016)"/><path class="p" d="M101.045,1247.518c.269,1.233-.237,2.611.254,4.553.42,1.662,1.23,1.816,1.762,1.711-.444,1.663-1.207,6.4-1.727,6.637-1.016.469-4.469-10.485-4.023-12.63.233-1.122,1.6-.823,3.174-.357A2.12,2.12,0,0,0,101.045,1247.518Z" transform="translate(-97.271 -1247.016)"/></g><path class="n" d="M163.514,1053.551c1.653-1.367.895-22.734,2.731-36.541.779-5.854,37.479,9.781,38.094,17.883a117.229,117.229,0,0,1-16.508,68.75c-.774,1.3-5.448.078-5.448.078-.2-1.951,1.049-30.46,6.54-40.722,2-3.741-2.152-32.243-3.051-32.081-.641.115-1.361,8.684-3.272,16.731-3.478,14.646-3.369,29.167-50.68,14.983l-.318-5.317S161.542,1055.182,163.514,1053.551Z" transform="translate(-125.511 -960.609)"/><path class="d" d="M456.59,872.5c-.016-3.135.422-5.961,1.983-6.322,1.648-.381,4.977,10.751,5.549,14.154A31.967,31.967,0,0,1,456.59,872.5Z" transform="translate(-392.85 -837.582)"/><g transform="translate(43.494 15.712)"><path class="o" d="M345.488,795.057c5.793-2.394,14.531-2.046,18.858,2.217,3.27,3.222,1.126,8.567,1.1,11.44-.031,4.064,2.748,11.112,3.043,15.97a4.008,4.008,0,0,0,.185.849c-4.455.46-16.632,1.057-25.663-1.8a23.614,23.614,0,0,0,2.081-4.725c1.821-6.4-.132-8.945-1.565-12.651C342.865,804.638,340.7,797.036,345.488,795.057Z" transform="translate(-342.463 -793.576)"/></g><path class="d" d="M346.87,851.808c-.4-1.015-.865-2-1.286-3.091a16.6,16.6,0,0,1-.624-2.11l4.85-1.54S350.162,850.044,346.87,851.808Z" transform="translate(-301.024 -820.222)"/><path class="p" d="M356.287,990.11c-.543-7.14-3.852-17.357-9.355-28.822-9.151,2.445-21,1.07-25.428.41-.672,1.9-2.648,5.542-3.312,10.53-1.386,10.426-1.294,25.156-1.877,32.337,3.047.635,8.98,1.774,15.842,2.586,2.874.34,5.909.621,8.963.785a74.559,74.559,0,0,0,15.133-.517A112.849,112.849,0,0,0,356.287,990.11Z" transform="translate(-277.459 -915.826)"/><g transform="translate(52.881 5.386)"><path class="n" d="M396.448,765.533l-1.06,5.909c-.17.973,1.813,3.878,3.556,2.9.511-.286.142-1.724-.114-2.807l-.313-5.279Z" transform="translate(-395.378 -760.182)"/><path class="d" d="M404.3,774.14a3.452,3.452,0,0,1-2.12-2.834l1.979.452Z" transform="translate(-400.97 -764.931)"/><path class="n" d="M401.038,737.178l-.734,2.214a3.448,3.448,0,0,0,2.015,4.352,2.957,2.957,0,0,0,3.963-2.171c.528-1.826-.526-3.653-.864-4.575C404.646,734.9,402.069,734.695,401.038,737.178Z" transform="translate(-399.28 -735.369)"/><path class="n" d="M397.622,751.583a2.9,2.9,0,0,1-.054-.61c0-.39-.087-.969-.666-.686-.842.411-.734,2.487.228,2.648C397.846,753.055,397.73,752.088,397.622,751.583Z" transform="translate(-396.165 -747.579)"/><path class="n" d="M430.455,752.357a2.9,2.9,0,0,0,.114-.6c.038-.388.184-.955.732-.616.8.493.482,2.548-.492,2.612C430.086,753.8,430.3,752.849,430.455,752.357Z" transform="translate(-424.105 -748.256)"/><path class="g" d="M414.682,765.659a6.757,6.757,0,0,0,2.231.076,2.694,2.694,0,0,1-.844,1.227C415.552,767.255,414.987,766.677,414.682,765.659Z" transform="translate(-411.258 -760.286)"/></g><path class="n" d="M240.62,805.274c5.58-.928,4.894,7.791.933,9.524-4.6,2.013-14.011,5.761-14.884,8.748-1.112,3.8,16.14,16.628,15.69,19.109-1.066,5.874-24.761-5.483-26.008-16.48C215.483,818.525,221.2,808.5,240.62,805.274Z" transform="translate(-195.158 -787.431)"/><path class="d" d="M281.4,847.713c-1.7-2.241-2.42-9.368-2.42-9.368l6,7.381A39.384,39.384,0,0,0,281.4,847.713Z" transform="translate(-246.749 -814.692)"/><g transform="translate(31.871 17.774)"><path class="o" d="M290.531,805.274c5.58-.928,4.894,7.791.933,9.524-2.484,1.087-6.368,2.679-9.555,4.385-1.61-2.1-4.444-6.2-4.968-9.614A44.626,44.626,0,0,1,290.531,805.274Z" transform="translate(-276.941 -805.205)"/></g><path class="n" d="M348.724,1008.107c.9-.065,2.989,1.532,3.213,1.9a1.392,1.392,0,0,1,.226,1.347s1.473,1.678.2,2.317c-2.029,1.017-2.758.447-4.03-1.147S345.4,1008.346,348.724,1008.107Z" transform="translate(-302.515 -954.338)"/></g><path class="l" d="M1094.563,865.34l-17.4-3.753-.464,15.957,17.769-3.127Z" transform="translate(-805.687 -484.172)"/><g transform="translate(201.343 452.089)"><path class="d" d="M1091.659,2230.271c1-1.806,6.412-2.026,7.513-.586.48.627,1.749,1.011,3.5,1.565,2.794,1.124,6.251,2.586,6.45,3.487.33,1.5-15.392,2.905-18.139,1.674C1089.544,2235.767,1090.567,2232.251,1091.659,2230.271Z" transform="translate(-1018.197 -2080.897)"/><path class="d" d="M689.333,2081.721c2.046-.261,5.417,3.984,4.9,5.722-.224.758.214,2.008.8,3.749.74,2.919,1.6,6.574.987,7.265-1.018,1.153-11.422-10.718-12.048-13.663C683.648,2083.254,687.091,2082.007,689.333,2081.721Z" transform="translate(-683.953 -1959.946)"/><path class="q" d="M1107.2,1492.83c.491-2.055,12.324.521,15.463,11.455,1.687,5.875,5.847,18.551,8.338,21.945.949,1.293,31.981,12.556,30.647,15.966-1.5,3.821-33.553,2.242-41.277-10.069C1120.368,1532.126,1103.909,1506.594,1107.2,1492.83Z" transform="translate(-1031.761 -1474.995)"/><path class="d" d="M1147.789,1619.164s-4.14,6-7.618,8.109c-.952-1.844-1.943-3.874-2.9-6.013Z" transform="translate(-1056.859 -1579.452)"/><g transform="translate(75.977 15.262)"><path class="g" d="M1112.776,1482.017c.4-2.075,10.737.236,13.875,11.17a98.011,98.011,0,0,0,4.227,10.063c-2.792,2.113-8.57,6.062-15.052,7.236C1112.184,1500.575,1111.676,1487.72,1112.776,1482.017Z" transform="translate(-1112.261 -1481.33)"/></g><path class="r" d="M788.866,1705.956c.8-17.595.2-38.079-1.519-45.112-9.141,4.431-21.915-5.737-27.733-8.063-.6,2.829-4.986,8.762-6.907,11.794-4.325,6.825-8.045,32.98-10.93,36.92-1.665,2.275-26.512,17.855-28.619,27.3-.462,2.072,3.051,6.352,5.232,5.969,41.614-7.3,49.5-58.917,51.828-50.555.406,1.455,3.048,23.41,2.671,25.2-2.723,12.91,1.436,35.262,6.43,44.332,2.357,4.28,10.213,2.85,10.151,1.376C788.861,1740.52,788.52,1713.522,788.866,1705.956Z" transform="translate(-707.943 -1607.106)"/><path class="g" d="M986.329,1511.567c.2-3.89-.609-14.818,1.332-20.417,2.684-7.742,7.68-14.267.394-20.441-4.269-3.617-24.193-5.486-31.7,2.452-5.04,5.328,3.717,23.472-2.013,34.234C953.482,1509.009,977.672,1515.157,986.329,1511.567Z" transform="translate(-906.36 -1454.772)"/><g transform="translate(65.069 0)"><path class="d" d="M1072.62,1401.443s2.346-2.284,1.308-3.943c-3.141-5.016-7.489.082-7.489.082s-1.644-.3-2.519,2.233c-.526,1.521.471,4.852.471,4.852S1071.527,1403.977,1072.62,1401.443Z" transform="translate(-1061.461 -1395.292)"/><path class="q" d="M1055.111,1435.313l-4.335,6.974c-.259,1.064,4.788,5.361,6.786,4.405.585-.28.686-1.333.481-2.549l-1.351-6.674Z" transform="translate(-1050.766 -1428.214)"/><path class="d" d="M1073.191,1449.639c-1.127-.483-2.659-1.162-2.659-1.162a5.215,5.215,0,0,0,.974,3.686,5,5,0,0,0,2.567,1.834Z" transform="translate(-1066.993 -1439.042)"/><path class="q" d="M1073.242,1417.242l-2.612,3.737a2.782,2.782,0,0,0,.921,3.769,7.69,7.69,0,0,0,3.217,1.114c1.229.215,2.181-.739,2.651-2.293a15.161,15.161,0,0,0,.531-5.132C1077.8,1415.962,1075.123,1414.931,1073.242,1417.242Z" transform="translate(-1066.79 -1412.286)"/><path class="d" d="M1070.629,1423.723l2.612-3.737a4.124,4.124,0,0,1,.72-.7,9.393,9.393,0,0,0-.728,2.975c.345.952.516.225,1.92.6a8.872,8.872,0,0,1,2.671,1.554,12.62,12.62,0,0,1-.406,1.894c-.47,1.554-1.422,2.508-2.651,2.293a7.689,7.689,0,0,1-3.217-1.114A2.782,2.782,0,0,1,1070.629,1423.723Z" transform="translate(-1066.79 -1415.03)"/><path class="g" d="M1095.991,1444.5a7.5,7.5,0,0,0,2.345.787s-.235.915-.878,1.063S1095.993,1445.68,1095.991,1444.5Z" transform="translate(-1087.969 -1435.774)"/><path class="q" d="M1076.187,1423.541a3.976,3.976,0,0,1,.169-.827c.155-.514.266-1.314-.61-1.169-1.274.211-2.044,2.705-.836,3.3C1075.807,1425.282,1076.129,1424.251,1076.187,1423.541Z" transform="translate(-1070.13 -1416.874)"/></g><path class="q" d="M846.285,1488.872c-10.3.093-25.263,19.049-29.38,32.039-3.141,9.91,6.026,28.64,11.691,26.983s1.313-21.114,1.7-25.353c.59-6.465,16.358-18.693,18.941-26.3C850.51,1492.493,849.664,1488.841,846.285,1488.872Z" transform="translate(-792.795 -1472.272)"/><path class="d" d="M965.789,1556.917s-.761,10.277-4,13.691a83.993,83.993,0,0,0-.88-9.811Z" transform="translate(-911.78 -1528.246)"/><path class="d" d="M874.3,1588.693c.473-3.823,6.877,1.813,10.043,4.863-1.437,1.645-2.758,3.241-3.823,4.737C878.45,1596.7,873.808,1592.668,874.3,1588.693Z" transform="translate(-840.505 -1553.329)"/><path class="g" d="M888.953,1488.872c-6.379.058-14.545,7.353-20.818,15.984.808,2.837,3.213,7.769,10.319,10.485,4.913-6.5,11.679-13.881,13.451-19.1C893.178,1492.493,892.333,1488.841,888.953,1488.872Z" transform="translate(-835.463 -1472.272)"/><path class="q" d="M873.81,1804.363a7.165,7.165,0,0,1,1.95,2.524c.689,2-.59,2.483-.59,2.483a28.327,28.327,0,0,1,1.186,3.578c0,1.1-.621,1.221-2.184.838s-3.389-.937-3.971-1.671-2.631-6.561-1.42-7.518S873.361,1803.112,873.81,1804.363Z" transform="translate(-835.685 -1731.194)"/><path class="q" d="M1382.217,1747.076a7.163,7.163,0,0,1,3.078-.836c2.11.128,2.068,1.495,2.068,1.495a28.318,28.318,0,0,1,3.76.273c1.013.419.89,1.041-.062,2.338s-2.161,2.773-3.063,3.03-7.068-.078-7.489-1.564S1380.89,1747.012,1382.217,1747.076Z" transform="translate(-1256.856 -1683.981)"/></g></g></g></svg>