<svg xmlns="http://www.w3.org/2000/svg" width="35" height="35" viewBox="0 0 35 35"><defs><style>.a{fill:#fff;opacity:0.4;}</style></defs><path class="a" d="M35.5,18c-4.753,0-5.349.021-7.216.106a12.842,12.842,0,0,0-4.247.813,8.952,8.952,0,0,0-5.12,5.118,12.783,12.783,0,0,0-.813,4.247C18.022,30.15,18,30.747,18,35.5s.021,5.347.106,7.214a12.861,12.861,0,0,0,.813,4.247,8.955,8.955,0,0,0,5.117,5.12,12.853,12.853,0,0,0,4.248.813c1.867.085,2.463.106,7.215.106s5.348-.021,7.214-.106a12.861,12.861,0,0,0,4.25-.813,8.966,8.966,0,0,0,5.118-5.119,12.971,12.971,0,0,0,.813-4.247c.084-1.867.106-2.462.106-7.214s-.022-5.349-.106-7.216a12.965,12.965,0,0,0-.813-4.247,8.953,8.953,0,0,0-5.119-5.118,12.882,12.882,0,0,0-4.251-.813C40.844,18.021,40.25,18,35.5,18Zm-1.57,3.154H35.5c4.673,0,5.226.017,7.071.1a9.689,9.689,0,0,1,3.249.6,5.8,5.8,0,0,1,3.321,3.321,9.67,9.67,0,0,1,.6,3.248c.084,1.845.1,2.4.1,7.069s-.018,5.224-.1,7.069a9.679,9.679,0,0,1-.6,3.248,5.8,5.8,0,0,1-3.321,3.319,9.653,9.653,0,0,1-3.249.6c-1.845.084-2.4.1-7.071.1s-5.227-.018-7.071-.1a9.708,9.708,0,0,1-3.25-.6,5.8,5.8,0,0,1-3.322-3.32,9.669,9.669,0,0,1-.6-3.248c-.084-1.845-.1-2.4-.1-7.072s.017-5.224.1-7.069a9.689,9.689,0,0,1,.6-3.249,5.8,5.8,0,0,1,3.322-3.322,9.667,9.667,0,0,1,3.25-.6c1.614-.073,2.24-.095,5.5-.1Zm10.911,2.906a2.1,2.1,0,1,0,2.1,2.1,2.1,2.1,0,0,0-2.1-2.1ZM35.5,26.513A8.986,8.986,0,1,0,44.487,35.5,8.987,8.987,0,0,0,35.5,26.513Zm0,3.154A5.833,5.833,0,1,1,29.668,35.5,5.833,5.833,0,0,1,35.5,29.667Z" transform="translate(-18 -18)"/></svg>