<svg xmlns="http://www.w3.org/2000/svg" width="176.696" height="46.845" viewBox="0 0 176.696 46.845"><defs><style>.a{fill:#005dff;}.b{fill:#fff;}</style></defs><g transform="translate(-249.406 -48)"><g transform="translate(249.406 48)"><g transform="translate(0 0)"><path class="a" d="M333,394.811H317.519a15.728,15.728,0,0,1-15.682-15.682V347.966H333a15.727,15.727,0,0,1,15.682,15.68v15.483A15.728,15.728,0,0,1,333,394.811Z" transform="translate(-301.837 -347.966)"/></g><g transform="translate(9.742 13.68)"><g transform="translate(0 4.505)"><path class="b" d="M313.071,370.829a3.013,3.013,0,0,0,1.177-.161.627.627,0,0,0,.345-.629.771.771,0,0,0-.446-.639,8.647,8.647,0,0,0-1.36-.619,13.892,13.892,0,0,1-1.288-.548,3.775,3.775,0,0,1-.984-.68,2.758,2.758,0,0,1-.629-.943,3.5,3.5,0,0,1-.224-1.32,2.851,2.851,0,0,1,1.116-2.373,4.858,4.858,0,0,1,3.064-.873,9.822,9.822,0,0,1,1.867.173,8.673,8.673,0,0,1,1.421.376l-.528,2.352a11.436,11.436,0,0,0-1.146-.324,6.259,6.259,0,0,0-1.39-.142q-1.42,0-1.421.792a.8.8,0,0,0,.062.324.691.691,0,0,0,.243.274,3.384,3.384,0,0,0,.5.286c.209.1.477.216.8.337a12.63,12.63,0,0,1,1.643.726,3.95,3.95,0,0,1,1.026.774,2.4,2.4,0,0,1,.527.921,4.066,4.066,0,0,1,.152,1.174,2.7,2.7,0,0,1-1.187,2.389,5.919,5.919,0,0,1-3.358.81,9.445,9.445,0,0,1-3.674-.65l.508-2.454a9.963,9.963,0,0,0,1.582.477A7.705,7.705,0,0,0,313.071,370.829Z" transform="translate(-309.378 -362.043)"/></g><g transform="translate(9.261)"><path class="b" d="M321.173,358.556a6.608,6.608,0,0,1,1.562.173,7.572,7.572,0,0,1,1.1.335l-.589,2.414a3.957,3.957,0,0,0-.882-.274,4.73,4.73,0,0,0-.884-.09,2.475,2.475,0,0,0-.922.151,1.431,1.431,0,0,0-.589.416,1.614,1.614,0,0,0-.3.629,3.267,3.267,0,0,0-.092.792v.527H323.3v2.517H319.57V374.3h-3.023V363.061a4.151,4.151,0,0,1,4.626-4.5Z" transform="translate(-316.547 -358.556)"/></g><g transform="translate(16.546 5.072)"><path class="b" d="M333,362.482q-.915,3.083-1.911,5.782t-2.177,5.234a12.116,12.116,0,0,1-.854,1.553,4.816,4.816,0,0,1-.935,1.055,3.32,3.32,0,0,1-1.148.608,5.213,5.213,0,0,1-1.493.193,6.1,6.1,0,0,1-1.31-.132,5.753,5.753,0,0,1-.986-.295l.527-2.414a5.088,5.088,0,0,0,.832.223,4.759,4.759,0,0,0,.772.061,1.684,1.684,0,0,0,1.248-.437,3.532,3.532,0,0,0,.742-1.207q-1.037-2.029-2.072-4.555a56.878,56.878,0,0,1-1.948-5.671h3.206q.2.791.479,1.714t.58,1.867q.306.942.621,1.836t.6,1.624c.176-.487.36-1.028.549-1.624s.379-1.208.561-1.836.36-1.252.53-1.867.323-1.187.459-1.714Z" transform="translate(-322.186 -362.482)"/></g></g></g><g transform="translate(305.51 51.702)"><g transform="translate(0 9.455)"><path class="b" d="M283.558,418.5a5.948,5.948,0,0,0,2.324-.32,1.238,1.238,0,0,0,.681-1.243,1.522,1.522,0,0,0-.881-1.262A16.816,16.816,0,0,0,283,414.453a27.444,27.444,0,0,1-2.545-1.083,7.423,7.423,0,0,1-1.942-1.342,5.432,5.432,0,0,1-1.243-1.863,6.877,6.877,0,0,1-.441-2.6,5.631,5.631,0,0,1,2.2-4.687,9.585,9.585,0,0,1,6.05-1.723,19.482,19.482,0,0,1,3.686.34,17.265,17.265,0,0,1,2.8.743l-1.041,4.647a22.14,22.14,0,0,0-2.263-.641,12.3,12.3,0,0,0-2.745-.28q-2.806,0-2.8,1.563a1.608,1.608,0,0,0,.12.639,1.363,1.363,0,0,0,.481.541,6.567,6.567,0,0,0,.982.563q.62.3,1.582.667a24.477,24.477,0,0,1,3.245,1.434,7.751,7.751,0,0,1,2.023,1.526,4.736,4.736,0,0,1,1.043,1.82,8.071,8.071,0,0,1,.3,2.318,5.342,5.342,0,0,1-2.343,4.718,11.7,11.7,0,0,1-6.631,1.6,19.071,19.071,0,0,1-4.667-.481,18.62,18.62,0,0,1-2.584-.8l1-4.848a19.511,19.511,0,0,0,3.125.942A15.091,15.091,0,0,0,283.558,418.5Z" transform="translate(-276.267 -401.151)"/></g><g transform="translate(18.069 9.455)"><path class="b" d="M290.254,412.408a12.847,12.847,0,0,1,.862-4.906A10.5,10.5,0,0,1,293.379,404a9.39,9.39,0,0,1,3.224-2.122,10.077,10.077,0,0,1,3.746-.722,9.316,9.316,0,0,1,7.091,2.744q2.6,2.746,2.606,8.074,0,.521-.041,1.141c-.026.416-.053.782-.08,1.1H296.382a3.964,3.964,0,0,0,1.723,2.925,6.917,6.917,0,0,0,4.086,1.081,17.155,17.155,0,0,0,3.226-.3,12.1,12.1,0,0,0,2.584-.74l.8,4.847a8.259,8.259,0,0,1-1.281.481,16.881,16.881,0,0,1-1.784.421q-.982.18-2.1.3a21.063,21.063,0,0,1-2.244.119,13.261,13.261,0,0,1-4.948-.841,9.629,9.629,0,0,1-3.485-2.3,9.145,9.145,0,0,1-2.044-3.465A13.743,13.743,0,0,1,290.254,412.408Zm14.023-2.283a6.223,6.223,0,0,0-.261-1.482,3.7,3.7,0,0,0-.681-1.281,3.65,3.65,0,0,0-1.163-.922,3.789,3.789,0,0,0-1.743-.36,4,4,0,0,0-1.723.341,3.55,3.55,0,0,0-1.2.9,4.041,4.041,0,0,0-.742,1.3,8.6,8.6,0,0,0-.381,1.5Z" transform="translate(-290.254 -401.151)"/></g><g transform="translate(40.865 9.535)"><path class="b" d="M307.9,402.414a33.305,33.305,0,0,1,3.927-.82,32.313,32.313,0,0,1,5.047-.381,12.3,12.3,0,0,1,4.468.7,6.729,6.729,0,0,1,2.824,1.983,7.73,7.73,0,0,1,1.482,3.045,16.163,16.163,0,0,1,.442,3.926v11.9H320.12V411.59a8.038,8.038,0,0,0-.761-4.086,3.1,3.1,0,0,0-2.845-1.2q-.641,0-1.362.059t-1.282.14v16.267H307.9Z" transform="translate(-307.9 -401.213)"/></g><g transform="translate(61.858 0)"><path class="b" d="M343.742,424.241c-.534.16-1.148.315-1.842.461s-1.422.273-2.184.38-1.535.2-2.323.261-1.542.1-2.263.1a13.275,13.275,0,0,1-4.648-.761,9.338,9.338,0,0,1-3.445-2.185,9.47,9.47,0,0,1-2.144-3.445,13.168,13.168,0,0,1-.74-4.547,15.559,15.559,0,0,1,.641-4.627,10.066,10.066,0,0,1,1.843-3.506,7.881,7.881,0,0,1,2.944-2.2,9.893,9.893,0,0,1,3.987-.761,9.379,9.379,0,0,1,2.223.24,12.234,12.234,0,0,1,1.984.681v-9.534l5.968-.962Zm-13.5-10.016a7.309,7.309,0,0,0,1.241,4.446,4.287,4.287,0,0,0,3.687,1.682c.534,0,1.027-.018,1.482-.059s.828-.087,1.123-.14V409.3a5.193,5.193,0,0,0-1.464-.6,7.039,7.039,0,0,0-1.821-.24Q330.241,408.456,330.241,414.225Z" transform="translate(-324.151 -393.832)"/></g><g transform="translate(85.455 0)"><path class="b" d="M351.553,393.832a13.038,13.038,0,0,1,3.084.341,14.916,14.916,0,0,1,2.164.66l-1.161,4.767a7.911,7.911,0,0,0-1.743-.54,9.32,9.32,0,0,0-1.744-.18,4.86,4.86,0,0,0-1.822.3,2.809,2.809,0,0,0-1.163.822,3.171,3.171,0,0,0-.6,1.241,6.43,6.43,0,0,0-.18,1.563v1.043h7.371v4.967h-7.371v16.105h-5.971v-22.2a8.992,8.992,0,0,1,2.3-6.49Q347.024,393.831,351.553,393.832Z" transform="translate(-342.417 -393.832)"/></g><g transform="translate(99.238 10.017)"><path class="b" d="M374.44,401.586q-1.808,6.088-3.775,11.417t-4.3,10.337a23.7,23.7,0,0,1-1.686,3.064,9.508,9.508,0,0,1-1.846,2.084,6.561,6.561,0,0,1-2.267,1.2,10.282,10.282,0,0,1-2.949.38,12.071,12.071,0,0,1-2.588-.261,11.673,11.673,0,0,1-1.946-.58l1.041-4.768a10.257,10.257,0,0,0,1.643.44,9.279,9.279,0,0,0,1.524.12,3.335,3.335,0,0,0,2.465-.862,6.928,6.928,0,0,0,1.462-2.383q-2.044-4.005-4.089-8.994a111.861,111.861,0,0,1-3.847-11.2h6.33q.4,1.56.946,3.385t1.147,3.686q.6,1.862,1.227,3.625t1.187,3.206q.521-1.444,1.085-3.206t1.107-3.625q.543-1.864,1.045-3.686t.906-3.385Z" transform="translate(-353.086 -401.586)"/></g></g></g></svg>