<svg xmlns="http://www.w3.org/2000/svg" width="132.019" height="35" viewBox="0 0 132.019 35"><defs><style>.a{fill:#005dff;}.b{fill:#fff;}.c{fill:#2e2e3d;}</style></defs><g transform="translate(-249.406 -48)"><g transform="translate(249.406 48)"><g transform="translate(0 0)"><path class="a" d="M325.12,382.966H313.554a11.751,11.751,0,0,1-11.717-11.717V347.966H325.12a11.751,11.751,0,0,1,11.717,11.716v11.568A11.752,11.752,0,0,1,325.12,382.966Z" transform="translate(-301.837 -347.966)"/></g><g transform="translate(7.279 10.221)"><g transform="translate(0 3.366)"><path class="b" d="M312.138,368.607a2.25,2.25,0,0,0,.879-.121.469.469,0,0,0,.258-.47.576.576,0,0,0-.333-.478,6.468,6.468,0,0,0-1.016-.462,10.363,10.363,0,0,1-.962-.409,2.821,2.821,0,0,1-.736-.508,2.062,2.062,0,0,1-.47-.7,2.616,2.616,0,0,1-.167-.986,2.13,2.13,0,0,1,.834-1.773,3.63,3.63,0,0,1,2.29-.652,7.345,7.345,0,0,1,1.395.129,6.472,6.472,0,0,1,1.062.281l-.395,1.758a8.549,8.549,0,0,0-.856-.242,4.678,4.678,0,0,0-1.039-.106q-1.061,0-1.062.592a.6.6,0,0,0,.046.242.516.516,0,0,0,.181.2,2.526,2.526,0,0,0,.372.213c.156.076.356.161.6.252a9.433,9.433,0,0,1,1.228.542,2.95,2.95,0,0,1,.766.578,1.8,1.8,0,0,1,.394.688,3.035,3.035,0,0,1,.114.877,2.02,2.02,0,0,1-.887,1.785,4.422,4.422,0,0,1-2.509.605,7.055,7.055,0,0,1-2.745-.485l.379-1.834a7.448,7.448,0,0,0,1.182.356A5.76,5.76,0,0,0,312.138,368.607Z" transform="translate(-309.378 -362.043)"/></g><g transform="translate(6.92)"><path class="b" d="M320,358.556a4.935,4.935,0,0,1,1.167.129,5.655,5.655,0,0,1,.819.25l-.44,1.8a2.959,2.959,0,0,0-.659-.2,3.536,3.536,0,0,0-.66-.068,1.848,1.848,0,0,0-.689.113,1.069,1.069,0,0,0-.44.311,1.206,1.206,0,0,0-.227.47,2.439,2.439,0,0,0-.069.592v.394H321.6v1.88h-2.789v6.094h-2.259v-8.4A3.1,3.1,0,0,1,320,358.556Z" transform="translate(-316.547 -358.556)"/></g><g transform="translate(12.362 3.789)"><path class="b" d="M330.266,362.482q-.683,2.3-1.428,4.32t-1.626,3.911a9.056,9.056,0,0,1-.638,1.16,3.6,3.6,0,0,1-.7.789,2.481,2.481,0,0,1-.858.455,3.9,3.9,0,0,1-1.116.144,4.555,4.555,0,0,1-.979-.1,4.294,4.294,0,0,1-.736-.22l.394-1.8a3.8,3.8,0,0,0,.622.167,3.554,3.554,0,0,0,.577.045,1.258,1.258,0,0,0,.932-.326,2.639,2.639,0,0,0,.554-.9q-.775-1.516-1.548-3.4a42.5,42.5,0,0,1-1.456-4.237h2.4q.152.591.358,1.281t.433,1.395q.229.7.464,1.372t.45,1.213c.131-.364.269-.768.41-1.213s.283-.9.419-1.372.269-.935.4-1.395.241-.887.343-1.281Z" transform="translate(-322.186 -362.482)"/></g></g></g><g transform="translate(291.324 50.766)"><g transform="translate(0 7.064)"><path class="c" d="M281.715,414.113a4.445,4.445,0,0,0,1.736-.239.925.925,0,0,0,.509-.929A1.137,1.137,0,0,0,283.3,412a12.563,12.563,0,0,0-2.006-.912,20.5,20.5,0,0,1-1.9-.809,5.546,5.546,0,0,1-1.451-1,4.058,4.058,0,0,1-.928-1.392,5.138,5.138,0,0,1-.329-1.946,4.207,4.207,0,0,1,1.647-3.5,7.161,7.161,0,0,1,4.52-1.288,14.556,14.556,0,0,1,2.754.254,12.9,12.9,0,0,1,2.1.555l-.778,3.472a16.546,16.546,0,0,0-1.691-.479,9.19,9.19,0,0,0-2.051-.209q-2.1,0-2.1,1.168a1.2,1.2,0,0,0,.09.478,1.018,1.018,0,0,0,.359.4,4.909,4.909,0,0,0,.734.421q.463.227,1.182.5a18.282,18.282,0,0,1,2.425,1.071,5.79,5.79,0,0,1,1.512,1.14,3.538,3.538,0,0,1,.779,1.36,6.029,6.029,0,0,1,.224,1.732,3.991,3.991,0,0,1-1.751,3.525,8.744,8.744,0,0,1-4.954,1.194,14.248,14.248,0,0,1-3.487-.359,13.915,13.915,0,0,1-1.93-.6l.748-3.622a14.578,14.578,0,0,0,2.335.7A11.275,11.275,0,0,0,281.715,414.113Z" transform="translate(-276.267 -401.151)"/></g><g transform="translate(13.5 7.064)"><path class="c" d="M290.254,409.562a9.6,9.6,0,0,1,.644-3.666,7.849,7.849,0,0,1,1.691-2.62A7.016,7.016,0,0,1,295,401.691a7.528,7.528,0,0,1,2.8-.54,6.96,6.96,0,0,1,5.3,2.05q1.946,2.052,1.947,6.033,0,.389-.031.852c-.019.311-.04.584-.06.823H294.833a2.961,2.961,0,0,0,1.288,2.185,5.168,5.168,0,0,0,3.053.808,12.819,12.819,0,0,0,2.41-.224,9.039,9.039,0,0,0,1.93-.553l.6,3.621a6.173,6.173,0,0,1-.957.359,12.619,12.619,0,0,1-1.333.315q-.734.135-1.571.225a15.734,15.734,0,0,1-1.677.089,9.909,9.909,0,0,1-3.7-.628,7.194,7.194,0,0,1-2.6-1.721,6.833,6.833,0,0,1-1.527-2.589A10.267,10.267,0,0,1,290.254,409.562Zm10.477-1.705a4.65,4.65,0,0,0-.2-1.107,2.761,2.761,0,0,0-.509-.957,2.726,2.726,0,0,0-.869-.689,2.831,2.831,0,0,0-1.3-.269,2.991,2.991,0,0,0-1.288.255,2.653,2.653,0,0,0-.9.673,3.019,3.019,0,0,0-.554.973,6.423,6.423,0,0,0-.285,1.123Z" transform="translate(-290.254 -401.151)"/></g><g transform="translate(30.532 7.124)"><path class="c" d="M307.9,402.111a24.882,24.882,0,0,1,2.934-.613,24.142,24.142,0,0,1,3.771-.285,9.188,9.188,0,0,1,3.339.524,5.027,5.027,0,0,1,2.11,1.481,5.775,5.775,0,0,1,1.107,2.275,12.075,12.075,0,0,1,.33,2.933v8.89H317.03v-8.351a6.005,6.005,0,0,0-.569-3.053,2.319,2.319,0,0,0-2.125-.9q-.479,0-1.017.044t-.957.1v12.154H307.9Z" transform="translate(-307.9 -401.213)"/></g><g transform="translate(46.218 0)"><path class="c" d="M338.788,416.552c-.4.12-.858.236-1.376.345s-1.063.2-1.632.284-1.147.146-1.735.2-1.152.075-1.691.075a9.919,9.919,0,0,1-3.473-.568,6.977,6.977,0,0,1-2.574-1.632,7.077,7.077,0,0,1-1.6-2.574,9.839,9.839,0,0,1-.553-3.4,11.627,11.627,0,0,1,.479-3.457,7.521,7.521,0,0,1,1.377-2.619,5.888,5.888,0,0,1,2.2-1.647,7.393,7.393,0,0,1,2.979-.568,7.006,7.006,0,0,1,1.661.18,9.143,9.143,0,0,1,1.483.509v-7.123l4.459-.719ZM328.7,409.069a5.461,5.461,0,0,0,.928,3.322,3.2,3.2,0,0,0,2.755,1.257c.4,0,.767-.014,1.107-.044s.619-.065.839-.1v-8.112a3.88,3.88,0,0,0-1.094-.449,5.258,5.258,0,0,0-1.361-.18Q328.7,404.758,328.7,409.069Z" transform="translate(-324.151 -393.832)"/></g><g transform="translate(63.848 0)"><path class="c" d="M349.243,393.832a9.74,9.74,0,0,1,2.3.255,11.146,11.146,0,0,1,1.617.493l-.868,3.562a5.91,5.91,0,0,0-1.3-.4,6.966,6.966,0,0,0-1.3-.134,3.631,3.631,0,0,0-1.361.224,2.1,2.1,0,0,0-.869.614,2.37,2.37,0,0,0-.449.928,4.8,4.8,0,0,0-.134,1.168v.779h5.507v3.711h-5.507V417.06h-4.461V400.477a6.123,6.123,0,0,1,6.826-6.645Z" transform="translate(-342.417 -393.832)"/></g><g transform="translate(74.146 7.484)"><path class="c" d="M369.041,401.586q-1.351,4.549-2.82,8.53t-3.211,7.723a17.717,17.717,0,0,1-1.26,2.289,7.105,7.105,0,0,1-1.379,1.557,4.9,4.9,0,0,1-1.694.9,7.681,7.681,0,0,1-2.2.284,9.021,9.021,0,0,1-1.933-.195,8.727,8.727,0,0,1-1.454-.433l.778-3.562a7.664,7.664,0,0,0,1.228.329,6.934,6.934,0,0,0,1.139.09,2.492,2.492,0,0,0,1.842-.644,5.177,5.177,0,0,0,1.093-1.781q-1.527-2.993-3.055-6.72a83.55,83.55,0,0,1-2.874-8.366h4.729q.3,1.165.706,2.529t.857,2.754q.45,1.391.917,2.708t.887,2.4q.389-1.079.811-2.4t.827-2.708q.405-1.393.781-2.754t.677-2.529Z" transform="translate(-353.086 -401.586)"/></g></g></g></svg>