<svg xmlns="http://www.w3.org/2000/svg" width="35" height="35" viewBox="0 0 35 35"><defs><style>.a{fill:#0ccfd3;}.b{fill:#fff;}</style></defs><path class="a" d="M674.388,3591H662.818a11.749,11.749,0,0,1-11.715-11.715V3556h23.284a11.751,11.751,0,0,1,11.716,11.715v11.57A11.75,11.75,0,0,1,674.388,3591Z" transform="translate(-651.103 -3556)"/><g transform="translate(4.258 9.634)"><g transform="translate(0 3.739)"><path class="b" d="M658.442,3569.208a3.239,3.239,0,0,0-.29-1.6,1.079,1.079,0,0,0-1-.47,4.253,4.253,0,0,0-.456.024c-.156.014-.308.033-.456.054v6.376H653.9v-7.978c.2-.053.432-.108.7-.166s.55-.108.85-.156.6-.084.918-.111.623-.037.927-.037a3.934,3.934,0,0,1,1.453.226,3.277,3.277,0,0,1,.918.543,4.371,4.371,0,0,1,2.357-.769,4.1,4.1,0,0,1,1.625.275,2.445,2.445,0,0,1,1.014.777,2.95,2.95,0,0,1,.518,1.192,7.729,7.729,0,0,1,.141,1.54v4.665h-2.34v-4.383a3.241,3.241,0,0,0-.29-1.6,1.081,1.081,0,0,0-1-.47,2.112,2.112,0,0,0-.527.094,2.089,2.089,0,0,0-.558.235,3.64,3.64,0,0,1,.143.762q.03.4.031.857v4.507h-2.34Z" transform="translate(-653.905 -3565.142)"/></g><g transform="translate(11.506 3.927)"><path class="b" d="M668.71,3566.835q-.282.316-.763.848t-1.032,1.178c-.366.431-.737.879-1.109,1.351s-.71.927-1.015,1.366h4v1.948h-6.832v-1.382q.331-.566.793-1.218t.974-1.311q.511-.659,1.014-1.28t.926-1.123h-3.518v-1.946h6.565Z" transform="translate(-661.957 -3565.266)"/></g><g transform="translate(18.434)"><path class="b" d="M669.187,3569.574c.231-.25.468-.51.714-.781s.483-.538.714-.8.447-.519.65-.757.38-.448.526-.624h2.783q-.832.955-1.626,1.825t-1.735,1.794a10.731,10.731,0,0,1,.974,1.015c.336.392.659.8.974,1.219s.6.839.863,1.259.482.8.66,1.148h-2.69c-.167-.273-.359-.574-.573-.906s-.441-.661-.682-.992-.494-.647-.76-.951a6.287,6.287,0,0,0-.792-.772v3.621h-2.341v-11.81l2.341-.376Z" transform="translate(-666.847 -3562.683)"/></g></g></svg>