<svg xmlns="http://www.w3.org/2000/svg" width="35" height="34.999" viewBox="0 0 35 34.999"><defs><style>.a{fill:#cacace;}</style></defs><path class="a" d="M577.6,3590.787H566.637a12.031,12.031,0,0,1-12.018-12.017v-22.981H577.6a12.031,12.031,0,0,1,12.019,12.017v10.964A12.032,12.032,0,0,1,577.6,3590.787Zm-21.152-33.169v21.152a10.2,10.2,0,0,0,10.189,10.187H577.6a10.2,10.2,0,0,0,10.189-10.187V3567.8a10.2,10.2,0,0,0-10.189-10.187Z" transform="translate(-554.618 -3555.788)"/><g transform="translate(4.921 13.573)"><g transform="translate(0 0.216)"><path class="a" d="M564.483,3567.494l-.749.833c-.313.349-.652.734-1.012,1.155s-.722.864-1.088,1.326-.7.91-1,1.342h3.922v1.91h-6.7V3572.7c.217-.37.476-.766.78-1.193s.622-.855.954-1.287.666-.85,1-1.255.631-.774.909-1.1h-3.452v-1.911h6.442Z" transform="translate(-557.856 -3565.953)"/></g><g transform="translate(5.698)"><path class="a" d="M565.719,3565.811a5.283,5.283,0,0,1,1.694.232,2.6,2.6,0,0,1,1.086.663,2.426,2.426,0,0,1,.579,1.046,5.205,5.205,0,0,1,.169,1.373v4.776q-.492.107-1.371.254a13.15,13.15,0,0,1-2.127.147,6.736,6.736,0,0,1-1.424-.14,3.051,3.051,0,0,1-1.1-.455,2.079,2.079,0,0,1-.71-.823,2.861,2.861,0,0,1-.246-1.25,2.372,2.372,0,0,1,.284-1.2,2.213,2.213,0,0,1,.763-.786,3.507,3.507,0,0,1,1.094-.424,6.163,6.163,0,0,1,1.28-.13,7.238,7.238,0,0,1,.793.04,3.267,3.267,0,0,1,.562.1v-.216a1.27,1.27,0,0,0-.354-.939,1.712,1.712,0,0,0-1.232-.354,7.676,7.676,0,0,0-1.157.084,4.972,4.972,0,0,0-.986.237l-.292-1.849c.132-.04.3-.084.5-.131s.418-.086.655-.122.486-.066.748-.093S565.452,3565.811,565.719,3565.811Zm.185,6.719c.225,0,.441-.006.647-.017a4.094,4.094,0,0,0,.493-.045v-1.742c-.093-.021-.231-.04-.416-.062a4.688,4.688,0,0,0-.508-.031,4.561,4.561,0,0,0-.609.04,1.52,1.52,0,0,0-.5.146.867.867,0,0,0-.34.292.824.824,0,0,0-.122.463.788.788,0,0,0,.362.747A2,2,0,0,0,565.9,3572.53Z" transform="translate(-562.268 -3565.811)"/></g><g transform="translate(12.285)"><path class="a" d="M570.819,3565.811a5.3,5.3,0,0,1,1.7.232,2.615,2.615,0,0,1,1.086.663,2.437,2.437,0,0,1,.578,1.046,5.206,5.206,0,0,1,.169,1.373v4.776q-.492.107-1.371.254a13.153,13.153,0,0,1-2.128.147,6.738,6.738,0,0,1-1.424-.14,3.046,3.046,0,0,1-1.1-.455,2.076,2.076,0,0,1-.71-.823,2.858,2.858,0,0,1-.246-1.25,2.354,2.354,0,0,1,.286-1.2,2.194,2.194,0,0,1,.761-.786,3.506,3.506,0,0,1,1.094-.424,6.164,6.164,0,0,1,1.28-.13,7.236,7.236,0,0,1,.793.04,3.233,3.233,0,0,1,.562.1v-.216a1.264,1.264,0,0,0-.354-.939,1.712,1.712,0,0,0-1.232-.354,7.675,7.675,0,0,0-1.156.084,4.969,4.969,0,0,0-.986.237l-.292-1.849c.132-.04.3-.084.5-.131s.419-.086.655-.122.486-.066.748-.093S570.552,3565.811,570.819,3565.811Zm.185,6.719c.226,0,.441-.006.647-.017a4.088,4.088,0,0,0,.492-.045v-1.742c-.091-.021-.231-.04-.416-.062a4.683,4.683,0,0,0-.508-.031,4.56,4.56,0,0,0-.609.04,1.521,1.521,0,0,0-.5.146.854.854,0,0,0-.339.292.812.812,0,0,0-.123.463.788.788,0,0,0,.362.747A2,2,0,0,0,571,3572.53Z" transform="translate(-567.368 -3565.811)"/></g><g transform="translate(19.036)"><path class="a" d="M575.313,3572.483a2.327,2.327,0,0,0,.9-.123.48.48,0,0,0,.261-.479.587.587,0,0,0-.339-.484,6.467,6.467,0,0,0-1.033-.47,10.256,10.256,0,0,1-.979-.417,2.842,2.842,0,0,1-.746-.517,2.086,2.086,0,0,1-.479-.715,2.673,2.673,0,0,1-.169-1,2.162,2.162,0,0,1,.846-1.8,3.689,3.689,0,0,1,2.328-.664,7.467,7.467,0,0,1,1.418.132,6.594,6.594,0,0,1,1.078.285l-.4,1.787a8.3,8.3,0,0,0-.871-.247,4.827,4.827,0,0,0-1.056-.108q-1.078,0-1.079.6a.605.605,0,0,0,.047.247.523.523,0,0,0,.184.207,2.444,2.444,0,0,0,.378.217c.16.078.362.164.609.257a9.484,9.484,0,0,1,1.248.552,2.972,2.972,0,0,1,.778.586,1.814,1.814,0,0,1,.4.7,3.139,3.139,0,0,1,.116.892,2.053,2.053,0,0,1-.9,1.813,4.492,4.492,0,0,1-2.55.615,7.321,7.321,0,0,1-1.795-.185,7.484,7.484,0,0,1-.994-.307l.385-1.865a7.464,7.464,0,0,0,1.2.363A5.851,5.851,0,0,0,575.313,3572.483Z" transform="translate(-572.509 -3565.811)"/></g></g></svg>