<svg xmlns="http://www.w3.org/2000/svg" width="35" height="34.999" viewBox="0 0 35 34.999"><defs><style>.a{fill:#fff;}</style></defs><path class="a" d="M577.6,3590.786H566.637a12.031,12.031,0,0,1-12.018-12.016v-22.982H577.6a12.031,12.031,0,0,1,12.019,12.018v10.964A12.031,12.031,0,0,1,577.6,3590.786Zm-21.152-33.168v21.152a10.2,10.2,0,0,0,10.189,10.187H577.6a10.2,10.2,0,0,0,10.189-10.187v-10.964a10.2,10.2,0,0,0-10.189-10.188Z" transform="translate(-554.618 -3555.788)"/><g transform="translate(4.921 13.573)"><g transform="translate(0 0.216)"><path class="a" d="M564.483,3567.493l-.749.833c-.313.349-.652.734-1.012,1.155s-.722.864-1.088,1.326-.7.91-1,1.342h3.922v1.909h-6.7V3572.7c.217-.37.476-.766.78-1.193s.622-.855.954-1.287.666-.85,1-1.255.631-.774.909-1.1h-3.452v-1.911h6.442Z" transform="translate(-557.856 -3565.952)"/></g><g transform="translate(5.698)"><path class="a" d="M565.719,3565.81a5.3,5.3,0,0,1,1.694.232,2.6,2.6,0,0,1,1.086.663,2.429,2.429,0,0,1,.579,1.046,5.209,5.209,0,0,1,.169,1.374v4.776q-.492.107-1.371.254a13.094,13.094,0,0,1-2.127.147,6.753,6.753,0,0,1-1.424-.14,3.051,3.051,0,0,1-1.1-.455,2.075,2.075,0,0,1-.71-.823,2.862,2.862,0,0,1-.246-1.25,2.371,2.371,0,0,1,.284-1.2,2.208,2.208,0,0,1,.763-.786,3.507,3.507,0,0,1,1.094-.425,6.2,6.2,0,0,1,1.28-.131,7.238,7.238,0,0,1,.793.04,3.288,3.288,0,0,1,.562.1v-.216a1.271,1.271,0,0,0-.354-.939,1.713,1.713,0,0,0-1.232-.354,7.676,7.676,0,0,0-1.157.084,4.956,4.956,0,0,0-.986.237l-.292-1.849c.132-.04.3-.084.5-.131s.418-.086.655-.122.486-.066.748-.093S565.452,3565.81,565.719,3565.81Zm.185,6.719c.225,0,.441-.006.647-.017a4.129,4.129,0,0,0,.493-.046v-1.742c-.093-.021-.231-.041-.416-.062a4.751,4.751,0,0,0-.508-.031,4.56,4.56,0,0,0-.609.04,1.514,1.514,0,0,0-.5.146.868.868,0,0,0-.34.293.822.822,0,0,0-.122.462.788.788,0,0,0,.362.747A1.991,1.991,0,0,0,565.9,3572.529Z" transform="translate(-562.268 -3565.81)"/></g><g transform="translate(12.285)"><path class="a" d="M570.819,3565.81a5.313,5.313,0,0,1,1.7.232,2.62,2.62,0,0,1,1.086.663,2.44,2.44,0,0,1,.578,1.046,5.209,5.209,0,0,1,.169,1.374v4.776q-.492.107-1.371.254a13.1,13.1,0,0,1-2.128.147,6.754,6.754,0,0,1-1.424-.14,3.047,3.047,0,0,1-1.1-.455,2.073,2.073,0,0,1-.71-.823,2.858,2.858,0,0,1-.246-1.25,2.354,2.354,0,0,1,.286-1.2,2.19,2.19,0,0,1,.761-.786,3.507,3.507,0,0,1,1.094-.425,6.2,6.2,0,0,1,1.28-.131,7.236,7.236,0,0,1,.793.04,3.254,3.254,0,0,1,.562.1v-.216a1.265,1.265,0,0,0-.354-.939,1.713,1.713,0,0,0-1.232-.354,7.675,7.675,0,0,0-1.156.084,4.953,4.953,0,0,0-.986.237l-.292-1.849c.132-.04.3-.084.5-.131s.419-.086.655-.122.486-.066.748-.093S570.552,3565.81,570.819,3565.81Zm.185,6.719c.226,0,.441-.006.647-.017a4.123,4.123,0,0,0,.492-.046v-1.742a4.135,4.135,0,0,0-.416-.062,4.746,4.746,0,0,0-.508-.031,4.559,4.559,0,0,0-.609.04,1.515,1.515,0,0,0-.5.146.855.855,0,0,0-.339.293.811.811,0,0,0-.123.462.788.788,0,0,0,.362.747A1.992,1.992,0,0,0,571,3572.529Z" transform="translate(-567.368 -3565.81)"/></g><g transform="translate(19.036)"><path class="a" d="M575.313,3572.482a2.315,2.315,0,0,0,.9-.123.48.48,0,0,0,.261-.479.587.587,0,0,0-.339-.484,6.533,6.533,0,0,0-1.033-.47,10.322,10.322,0,0,1-.979-.416,2.838,2.838,0,0,1-.746-.517,2.082,2.082,0,0,1-.479-.715,2.674,2.674,0,0,1-.169-1,2.164,2.164,0,0,1,.846-1.8,3.69,3.69,0,0,1,2.328-.664,7.427,7.427,0,0,1,1.418.132,6.551,6.551,0,0,1,1.078.284l-.4,1.787a8.241,8.241,0,0,0-.871-.247,4.812,4.812,0,0,0-1.056-.108q-1.078,0-1.079.6a.607.607,0,0,0,.047.247.528.528,0,0,0,.184.207,2.5,2.5,0,0,0,.378.217c.16.078.362.164.609.257a9.42,9.42,0,0,1,1.248.552,2.982,2.982,0,0,1,.778.586,1.82,1.82,0,0,1,.4.7,3.138,3.138,0,0,1,.116.892,2.052,2.052,0,0,1-.9,1.814,4.492,4.492,0,0,1-2.55.615,7.332,7.332,0,0,1-1.795-.185,7.494,7.494,0,0,1-.994-.307l.385-1.866a7.342,7.342,0,0,0,1.2.363A5.852,5.852,0,0,0,575.313,3572.482Z" transform="translate(-572.509 -3565.81)"/></g></g></svg>